<?xml version="1.0" encoding="UTF-8" standalone="no"?>
<!-- Created with Inkscape (http://www.inkscape.org/) -->

<svg
   width="15.169444mm"
   height="14.993055mm"
   viewBox="0 0 15.169444 14.993055"
   version="1.1"
   id="svg5927"
   inkscape:version="1.1 (ce6663b3b7, 2021-05-25)"
   sodipodi:docname="Fog.svg"
   xmlns:inkscape="http://www.inkscape.org/namespaces/inkscape"
   xmlns:sodipodi="http://sodipodi.sourceforge.net/DTD/sodipodi-0.dtd"
   xmlns="http://www.w3.org/2000/svg"
   xmlns:svg="http://www.w3.org/2000/svg">
  <sodipodi:namedview
     id="namedview5929"
     pagecolor="#ffffff"
     bordercolor="#666666"
     borderopacity="1.0"
     inkscape:pageshadow="2"
     inkscape:pageopacity="0.0"
     inkscape:pagecheckerboard="0"
     inkscape:document-units="mm"
     showgrid="false"
     fit-margin-top="0"
     fit-margin-left="0"
     fit-margin-right="0"
     fit-margin-bottom="0"
     inkscape:zoom="0.77771465"
     inkscape:cx="-396.67505"
     inkscape:cy="254.59209"
     inkscape:window-width="2560"
     inkscape:window-height="1355"
     inkscape:window-x="0"
     inkscape:window-y="0"
     inkscape:window-maximized="1"
     inkscape:current-layer="layer1" />
  <defs
     id="defs5924" />
  <g
     inkscape:label="Layer 1"
     inkscape:groupmode="layer"
     id="layer1"
     transform="translate(-92.776103,-80.957076)">
    <g
       id="g5858"
       transform="matrix(0.35277777,0,0,-0.35277777,-115.79317,226.00342)">
      <g
         id="g53"
         style="fill:#90bff7;fill-opacity:1">
        <g
           id="g55"
           style="fill:#90bff7;fill-opacity:1">
          <g
             id="g61"
             style="fill:#90bff7;fill-opacity:1">
            <g
               id="g63"
               style="fill:#90bff7;fill-opacity:1">
              <path
                 d="m 593.22,411.155 c -1.105,0 -2,-0.895 -2,-2 v 0 c 0,-1.105 0.895,-2 2,-2 v 0 h 38.999 c 1.106,0 2.001,0.895 2.001,2 v 0 c 0,1.105 -0.895,2 -2.001,2 v 0 z"
                 style="fill:#90bff7;fill-opacity:1;stroke:none"
                 id="path71" />
            </g>
          </g>
        </g>
      </g>
      <g
         id="g73"
         style="fill:#90bff7;fill-opacity:1">
        <g
           id="g75"
           style="fill:#90bff7;fill-opacity:1">
          <g
             id="g81"
             style="fill:#90bff7;fill-opacity:1">
            <g
               id="g83"
               style="fill:#90bff7;fill-opacity:1">
              <path
                 d="m 601.22,401.53 c -1.105,0 -2,-0.896 -2,-2 v 0 c 0,-1.104 0.895,-2 2,-2 v 0 h 20.999 c 1.106,0 2.001,0.896 2.001,2 v 0 c 0,1.104 -0.895,2 -2.001,2 v 0 z"
                 style="fill:#90bff7;fill-opacity:1;stroke:none"
                 id="path91" />
            </g>
          </g>
        </g>
      </g>
      <g
         id="g93"
         style="fill:#90bff7;fill-opacity:1">
        <g
           id="g95"
           style="fill:#90bff7;fill-opacity:1">
          <g
             id="g101"
             style="fill:#90bff7;fill-opacity:1">
            <g
               id="g103"
               style="fill:#90bff7;fill-opacity:1">
              <path
                 d="m 607.22,391.905 c -1.105,0 -2.001,-0.896 -2.001,-2 v 0 c 0,-1.104 0.896,-2 2.001,-2 v 0 h 18 c 1.104,0 2,0.896 2,2 v 0 c 0,1.104 -0.896,2 -2,2 v 0 z"
                 style="fill:#90bff7;fill-opacity:1;stroke:none"
                 id="path111" />
            </g>
          </g>
        </g>
      </g>
      <g
         id="g113"
         style="fill:#90bff7;fill-opacity:1">
        <g
           id="g115"
           style="fill:#90bff7;fill-opacity:1">
          <g
             id="g121"
             style="fill:#90bff7;fill-opacity:1">
            <g
               id="g123"
               style="fill:#90bff7;fill-opacity:1">
              <path
                 d="m 607.22,382.28 c -1.105,0 -2.001,-0.895 -2.001,-1.999 v 0 c 0,-1.105 0.896,-2 2.001,-2 v 0 h 12 c 1.104,0 2,0.895 2,2 v 0 c 0,1.104 -0.896,1.999 -2,1.999 v 0 z"
                 style="fill:#90bff7;fill-opacity:1;stroke:none"
                 id="path131" />
            </g>
          </g>
        </g>
      </g>
      <g
         id="g133"
         style="fill:#90bff7;fill-opacity:1">
        <g
           id="g135"
           style="fill:#90bff7;fill-opacity:1">
          <g
             id="g141"
             style="fill:#90bff7;fill-opacity:1">
            <g
               id="g143"
               style="fill:#90bff7;fill-opacity:1">
              <path
                 d="m 608.719,372.656 c -1.104,0 -1.999,-0.896 -1.999,-2.001 v 0 c 0,-1.104 0.895,-2 1.999,-2 v 0 h 1 c 1.106,0 2.001,0.896 2.001,2 v 0 c 0,1.105 -0.895,2.001 -2.001,2.001 v 0 z"
                 style="fill:#90bff7;fill-opacity:1;stroke:none"
                 id="path151" />
            </g>
          </g>
        </g>
      </g>
    </g>
  </g>
</svg>
