<?xml version="1.0" encoding="UTF-8" standalone="no"?>
<!-- Created with Inkscape (http://www.inkscape.org/) -->

<svg
   width="23.606611mm"
   height="22.968019mm"
   viewBox="0 0 23.606611 22.968019"
   version="1.1"
   id="svg81557"
   inkscape:version="1.1 (ce6663b3b7, 2021-05-25)"
   sodipodi:docname="Snow Rain.svg"
   xmlns:inkscape="http://www.inkscape.org/namespaces/inkscape"
   xmlns:sodipodi="http://sodipodi.sourceforge.net/DTD/sodipodi-0.dtd"
   xmlns="http://www.w3.org/2000/svg"
   xmlns:svg="http://www.w3.org/2000/svg">
  <sodipodi:namedview
     id="namedview81559"
     pagecolor="#ffffff"
     bordercolor="#666666"
     borderopacity="1.0"
     inkscape:pageshadow="2"
     inkscape:pageopacity="0.0"
     inkscape:pagecheckerboard="false"
     inkscape:document-units="mm"
     showgrid="false"
     inkscape:zoom="0.77771465"
     inkscape:cx="-84.221122"
     inkscape:cy="541.32965"
     inkscape:window-width="2560"
     inkscape:window-height="1355"
     inkscape:window-x="0"
     inkscape:window-y="0"
     inkscape:window-maximized="1"
     inkscape:current-layer="layer1"
     fit-margin-top="0"
     fit-margin-left="0"
     fit-margin-right="0"
     fit-margin-bottom="0" />
  <defs
     id="defs81554" />
  <g
     inkscape:label="Layer 1"
     inkscape:groupmode="layer"
     id="layer1"
     transform="translate(-10.078114,-5.1812251)">
    <g
       id="g81514"
       style="fill:#dcecf9;fill-opacity:1"
       transform="matrix(0.35277777,0,0,-0.35277777,-247.74233,261.66414)">
      <path
         d="m 0,0 c 5.889,0 10.664,4.774 10.664,10.664 0,5.889 -4.775,10.664 -10.664,10.664 -0.037,0 -0.073,-0.006 -0.109,-0.006 -0.949,8.504 -8.158,15.116 -16.915,15.116 -6.916,0 -12.864,-4.125 -15.529,-10.048 -0.084,0.002 -0.167,0.006 -0.252,0.006 -7.289,0 -13.198,-5.909 -13.198,-13.198 C -46.003,5.909 -40.094,0 -32.805,0"
         style="fill:#569fed;fill-opacity:1;fill-rule:nonzero;stroke:none"
         id="path728"
         transform="translate(776.83262,690.6002)" />
      <path
         d="m 770.609,707.171 c -0.052,10e-4 -0.105,0.004 -0.159,0.004 v 0 c -4.576,0 -8.288,-3.71 -8.288,-8.287 v 0 c 0,-4.578 3.712,-8.287 8.288,-8.287 v 0 h 20.6 c 3.698,0 6.696,2.997 6.696,6.695 v 0 c 0,3.698 -2.998,6.697 -6.696,6.697 v 0 c -0.023,0 -0.045,-0.004 -0.069,-0.004 v 0 c -0.596,5.34 -5.122,9.492 -10.621,9.492 v 0 c -4.343,0 -8.078,-2.59 -9.751,-6.31"
         style="fill:#dcecf9;fill-opacity:1;stroke:none"
         id="path748" />
      <path
         d="m 742.412,682.253 -6.499,-11.256 c -0.552,-0.957 -0.225,-2.18 0.733,-2.733 v 0 c 0.315,-0.181 0.658,-0.268 0.998,-0.268 v 0 c 0.691,0 1.362,0.359 1.734,1.001 v 0 l 6.499,11.256 c 0.551,0.957 0.224,2.18 -0.733,2.732 v 0 c -0.316,0.183 -0.66,0.269 -0.999,0.269 v 0 c -0.692,0 -1.363,-0.36 -1.733,-1.001"
         style="fill:#90bff7;fill-opacity:1;stroke:none"
         id="path768" />
      <path
         d="m 753.052,682.253 -9.999,-17.32 c -0.552,-0.957 -0.225,-2.18 0.732,-2.732 v 0 c 0.315,-0.183 0.659,-0.269 0.997,-0.269 v 0 c 0.692,0 1.364,0.359 1.736,1.001 v 0 l 10,17.32 c 0.551,0.957 0.224,2.18 -0.733,2.732 v 0 c -0.316,0.183 -0.661,0.269 -1,0.269 v 0 c -0.691,0 -1.362,-0.36 -1.733,-1.001"
         style="fill:#90bff7;fill-opacity:1;stroke:none"
         id="path788" />
      <path
         d="m 764.017,681.254 c 0,-1.104 0.896,-2 2,-2 v 0 c 1.105,0 2,0.896 2,2 v 0 c 0,1.105 -0.895,2 -2,2 v 0 c -1.104,0 -2,-0.895 -2,-2"
         style="fill:#dcecf9;fill-opacity:1;stroke:none"
         id="path808" />
      <path
         d="m 774.017,681.254 c 0,-1.104 0.896,-2 2,-2 v 0 c 1.105,0 2.001,0.896 2.001,2 v 0 c 0,1.105 -0.896,2 -2.001,2 v 0 c -1.104,0 -2,-0.895 -2,-2"
         style="fill:#dcecf9;fill-opacity:1;stroke:none"
         id="path828" />
      <path
         d="m 755.017,664.646 c 0,-1.104 0.896,-1.999 2,-1.999 v 0 c 1.105,0 2,0.895 2,1.999 v 0 c 0,1.105 -0.895,2 -2,2 v 0 c -1.104,0 -2,-0.895 -2,-2"
         style="fill:#dcecf9;fill-opacity:1;stroke:none"
         id="path848" />
      <path
         d="m 760.018,673.147 c 0,-1.105 0.895,-2.001 1.999,-2.001 v 0 c 1.106,0 2,0.896 2,2.001 v 0 c 0,1.104 -0.894,2 -2,2 v 0 c -1.104,0 -1.999,-0.896 -1.999,-2"
         style="fill:#dcecf9;fill-opacity:1;stroke:none"
         id="path868" />
      <path
         d="m 770.018,673.147 c 0,-1.105 0.895,-2.001 1.999,-2.001 v 0 c 1.105,0 2,0.896 2,2.001 v 0 c 0,1.104 -0.895,2 -2,2 v 0 c -1.104,0 -1.999,-0.896 -1.999,-2"
         style="fill:#dcecf9;fill-opacity:1;stroke:none"
         id="path888" />
    </g>
  </g>
</svg>
