<?xml version="1.0" encoding="UTF-8" standalone="no"?>
<!-- Created with Inkscape (http://www.inkscape.org/) -->

<svg
   width="23.606724mm"
   height="20.82955mm"
   viewBox="0 0 23.606724 20.82955"
   version="1.1"
   id="svg5311"
   inkscape:version="1.1 (ce6663b3b7, 2021-05-25)"
   sodipodi:docname="Thunderstorm Rain.svg"
   xmlns:inkscape="http://www.inkscape.org/namespaces/inkscape"
   xmlns:sodipodi="http://sodipodi.sourceforge.net/DTD/sodipodi-0.dtd"
   xmlns="http://www.w3.org/2000/svg"
   xmlns:svg="http://www.w3.org/2000/svg">
  <sodipodi:namedview
     id="namedview5313"
     pagecolor="#ffffff"
     bordercolor="#666666"
     borderopacity="1.0"
     inkscape:pageshadow="2"
     inkscape:pageopacity="0.0"
     inkscape:pagecheckerboard="0"
     inkscape:document-units="mm"
     showgrid="false"
     fit-margin-top="0"
     fit-margin-left="0"
     fit-margin-right="0"
     fit-margin-bottom="0"
     inkscape:zoom="0.77771465"
     inkscape:cx="-120.22404"
     inkscape:cy="342.02776"
     inkscape:window-width="2560"
     inkscape:window-height="1355"
     inkscape:window-x="0"
     inkscape:window-y="0"
     inkscape:window-maximized="1"
     inkscape:current-layer="layer1" />
  <defs
     id="defs5308">
    <linearGradient
       x1="0"
       y1="0"
       x2="1"
       y2="0"
       gradientUnits="userSpaceOnUse"
       gradientTransform="matrix(19.207622,19.207622,19.207622,-19.207622,608.05035,672.28589)"
       spreadMethod="pad"
       id="linearGradient2209">
      <stop
         style="stop-opacity:1;stop-color:#fdb727"
         offset="0"
         id="stop2205" />
      <stop
         style="stop-opacity:1;stop-color:#ffce22"
         offset="1"
         id="stop2207" />
    </linearGradient>
    <clipPath
       clipPathUnits="userSpaceOnUse"
       id="clipPath2219">
      <path
         d="M 0,943.388 H 1828.656 V 0 H 0 Z"
         id="path2217" />
    </clipPath>
    <linearGradient
       x1="0"
       y1="0"
       x2="1"
       y2="0"
       gradientUnits="userSpaceOnUse"
       gradientTransform="matrix(20.325035,20.325035,20.325035,-20.325035,618.00739,688.01172)"
       spreadMethod="pad"
       id="linearGradient2241">
      <stop
         style="stop-opacity:1;stop-color:#d0e8f8"
         offset="0"
         id="stop2237" />
      <stop
         style="stop-opacity:1;stop-color:#e2eef9"
         offset="1"
         id="stop2239" />
    </linearGradient>
  </defs>
  <g
     inkscape:label="Layer 1"
     inkscape:groupmode="layer"
     id="layer1"
     transform="translate(-19.83581,-57.966665)">
    <g
       id="g5228"
       transform="matrix(0.35277777,0,0,-0.35277777,-184.5147,314.43875)">
      <g
         id="g2193">
        <g
           id="g2195">
          <g
             id="g2201">
            <g
               id="g2203">
              <path
                 d="m 615.362,691.713 -5.267,-9.122 c -0.826,-1.43 -0.154,-2.5 1.492,-2.378 v 0 l 4.302,0.316 c 1.645,0.121 2.347,-0.966 1.56,-2.416 v 0 l -4.786,-8.806 c -0.787,-1.45 -0.389,-1.779 0.885,-0.73 v 0 l 17.302,14.229 c 1.274,1.047 0.969,1.837 -0.68,1.752 v 0 l -6.61,-0.338 c -1.648,-0.085 -2.322,1.016 -1.496,2.444 v 0 l 2.909,5.04 c 0.825,1.429 0.15,2.599 -1.5,2.601 v 0 l -3.611,0.004 c -1.65,10e-4 -3.675,-1.168 -4.5,-2.596"
                 style="fill:url(#linearGradient2209);stroke:none"
                 id="path2211" />
            </g>
          </g>
        </g>
      </g>
      <g
         id="g2213">
        <g
           id="g2215"
           clip-path="url(#clipPath2219)"
           style="fill:#549eec;fill-opacity:1">
          <g
             id="g2221"
             transform="translate(625.2643,690.5695)"
             style="fill:#549eec;fill-opacity:1">
            <path
               d="m 0,0 c 5.89,0 10.664,4.774 10.664,10.664 0,5.889 -4.774,10.664 -10.664,10.664 -0.037,0 -0.072,-0.006 -0.109,-0.006 -0.949,8.504 -8.158,15.116 -16.915,15.116 -6.915,0 -12.864,-4.125 -15.528,-10.048 -0.084,0.002 -0.168,0.006 -0.252,0.006 -7.29,0 -13.199,-5.909 -13.199,-13.198 C -46.003,5.909 -40.094,0 -32.804,0"
               style="fill:#549eec;fill-opacity:1;fill-rule:nonzero;stroke:none"
               id="path2223" />
          </g>
        </g>
      </g>
      <g
         id="g2225">
        <g
           id="g2227">
          <g
             id="g2233">
            <g
               id="g2235">
              <path
                 d="m 619.041,707.141 c -0.053,0.001 -0.106,0.003 -0.159,0.003 v 0 c -4.577,0 -8.287,-3.709 -8.287,-8.287 v 0 c 0,-4.577 3.71,-8.288 8.287,-8.288 v 0 h 20.6 c 3.698,0 6.696,2.999 6.696,6.697 v 0 c 0,3.698 -2.998,6.696 -6.696,6.696 v 0 c -0.023,0 -0.046,-0.004 -0.068,-0.004 v 0 c -0.596,5.34 -5.124,9.493 -10.622,9.493 v 0 c -4.342,0 -8.077,-2.591 -9.751,-6.31"
                 style="fill:url(#linearGradient2241);stroke:none"
                 id="path2243" />
            </g>
          </g>
        </g>
      </g>
      <g
         id="g2245"
         style="fill:#90bff7;fill-opacity:1">
        <g
           id="g2247"
           style="fill:#90bff7;fill-opacity:1">
          <g
             id="g2253"
             style="fill:#90bff7;fill-opacity:1">
            <g
               id="g2255"
               style="fill:#90bff7;fill-opacity:1">
              <path
                 d="m 589.844,682.311 -6.499,-11.257 c -0.553,-0.956 -0.225,-2.179 0.732,-2.732 v 0 c 0.315,-0.182 0.658,-0.267 0.998,-0.267 v 0 c 0.691,0 1.363,0.358 1.734,1 v 0 l 6.499,11.256 c 0.552,0.957 0.224,2.18 -0.732,2.732 v 0 c -0.315,0.182 -0.658,0.268 -0.998,0.268 v 0 c -0.691,0 -1.364,-0.359 -1.734,-1"
                 style="fill:#90bff7;fill-opacity:1;stroke:none"
                 id="path2263" />
            </g>
          </g>
        </g>
      </g>
      <g
         id="g2265"
         style="fill:#90bff7;fill-opacity:1">
        <g
           id="g2267"
           style="fill:#90bff7;fill-opacity:1">
          <g
             id="g2273"
             style="fill:#90bff7;fill-opacity:1">
            <g
               id="g2275"
               style="fill:#90bff7;fill-opacity:1">
              <path
                 d="m 600.478,682.311 -6.499,-11.257 c -0.552,-0.956 -0.225,-2.179 0.732,-2.732 v 0 c 0.315,-0.182 0.659,-0.267 0.998,-0.267 v 0 c 0.691,0 1.364,0.358 1.734,1 v 0 l 6.499,11.256 c 0.552,0.957 0.224,2.18 -0.732,2.732 v 0 c -0.315,0.182 -0.658,0.268 -0.998,0.268 v 0 c -0.691,0 -1.364,-0.359 -1.734,-1"
                 style="fill:#90bff7;fill-opacity:1;stroke:none"
                 id="path2283" />
            </g>
          </g>
        </g>
      </g>
    </g>
  </g>
</svg>
